<?xml version="1.0" encoding="UTF-8" standalone="no"?>
<!-- Created with Inkscape (http://www.inkscape.org/) -->

<svg
   xmlns:dc="http://purl.org/dc/elements/1.1/"
   xmlns:cc="http://creativecommons.org/ns#"
   xmlns:rdf="http://www.w3.org/1999/02/22-rdf-syntax-ns#"
   xmlns:svg="http://www.w3.org/2000/svg"
   xmlns="http://www.w3.org/2000/svg"
   xmlns:sodipodi="http://sodipodi.sourceforge.net/DTD/sodipodi-0.dtd"
   xmlns:inkscape="http://www.inkscape.org/namespaces/inkscape"
   width="339.14734"
   height="119.43948"
   id="svg2"
   version="1.1"
   inkscape:version="0.48.4 r9939"
   sodipodi:docname="GPRrules_diagram.svg">
  <defs
     id="defs4">
    <inkscape:path-effect
       effect="spiro"
       id="path-effect4408"
       is_visible="true" />
    <inkscape:path-effect
       effect="spiro"
       id="path-effect4380"
       is_visible="true" />
    <inkscape:path-effect
       effect="spiro"
       id="path-effect4286"
       is_visible="true" />
    <inkscape:path-effect
       effect="spiro"
       id="path-effect4282"
       is_visible="true" />
    <marker
       inkscape:stockid="Arrow2Lend"
       orient="auto"
       refY="0"
       refX="0"
       id="Arrow2Lend"
       style="overflow:visible">
      <path
         id="path3800"
         style="fill-rule:evenodd;stroke-width:0.625;stroke-linejoin:round"
         d="M 8.7185878,4.0337352 -2.2072895,0.01601326 8.7185884,-4.0017078 c -1.7454984,2.3720609 -1.7354408,5.6174519 -6e-7,8.035443 z"
         transform="matrix(-1.1,0,0,-1.1,-1.1,0)"
         inkscape:connector-curvature="0" />
    </marker>
    <marker
       inkscape:stockid="Arrow2Lend"
       orient="auto"
       refY="0"
       refX="0"
       id="Arrow2Lend-2"
       style="overflow:visible">
      <path
         inkscape:connector-curvature="0"
         id="path3800-9"
         style="fill-rule:evenodd;stroke-width:0.625;stroke-linejoin:round"
         d="M 8.7185878,4.0337352 -2.2072895,0.01601326 8.7185884,-4.0017078 c -1.7454984,2.3720609 -1.7354408,5.6174519 -6e-7,8.035443 z"
         transform="matrix(-1.1,0,0,-1.1,-1.1,0)" />
    </marker>
    <marker
       inkscape:stockid="Arrow2Lend"
       orient="auto"
       refY="0"
       refX="0"
       id="Arrow2Lend-4"
       style="overflow:visible">
      <path
         inkscape:connector-curvature="0"
         id="path3800-7"
         style="fill-rule:evenodd;stroke-width:0.625;stroke-linejoin:round"
         d="M 8.7185878,4.0337352 -2.2072895,0.01601326 8.7185884,-4.0017078 c -1.7454984,2.3720609 -1.7354408,5.6174519 -6e-7,8.035443 z"
         transform="matrix(-1.1,0,0,-1.1,-1.1,0)" />
    </marker>
    <inkscape:path-effect
       effect="spiro"
       id="path-effect4282-4"
       is_visible="true" />
    <inkscape:path-effect
       effect="spiro"
       id="path-effect4282-4-3"
       is_visible="true" />
    <marker
       inkscape:stockid="Arrow2Lend"
       orient="auto"
       refY="0"
       refX="0"
       id="Arrow2Lend-3"
       style="overflow:visible">
      <path
         inkscape:connector-curvature="0"
         id="path3800-8"
         style="fill-rule:evenodd;stroke-width:0.625;stroke-linejoin:round"
         d="M 8.7185878,4.0337352 -2.2072895,0.01601326 8.7185884,-4.0017078 c -1.7454984,2.3720609 -1.7354408,5.6174519 -6e-7,8.035443 z"
         transform="matrix(-1.1,0,0,-1.1,-1.1,0)" />
    </marker>
    <marker
       inkscape:stockid="Arrow2Lend"
       orient="auto"
       refY="0"
       refX="0"
       id="Arrow2Lend-29"
       style="overflow:visible">
      <path
         inkscape:connector-curvature="0"
         id="path3800-82"
         style="fill-rule:evenodd;stroke-width:0.625;stroke-linejoin:round"
         d="M 8.7185878,4.0337352 -2.2072895,0.01601326 8.7185884,-4.0017078 c -1.7454984,2.3720609 -1.7354408,5.6174519 -6e-7,8.035443 z"
         transform="matrix(-1.1,0,0,-1.1,-1.1,0)" />
    </marker>
    <inkscape:path-effect
       effect="spiro"
       id="path-effect4282-4-4"
       is_visible="true" />
    <inkscape:path-effect
       effect="spiro"
       id="path-effect4282-4-3-8"
       is_visible="true" />
    <inkscape:path-effect
       effect="spiro"
       id="path-effect4282-4-3-8-1"
       is_visible="true" />
    <inkscape:path-effect
       effect="spiro"
       id="path-effect4282-4-4-7"
       is_visible="true" />
    <marker
       inkscape:stockid="Arrow2Lend"
       orient="auto"
       refY="0"
       refX="0"
       id="Arrow2Lend-40"
       style="overflow:visible">
      <path
         id="path3800-94"
         style="fill-rule:evenodd;stroke-width:0.625;stroke-linejoin:round"
         d="M 8.7185878,4.0337352 -2.2072895,0.01601326 8.7185884,-4.0017078 c -1.7454984,2.3720609 -1.7354408,5.6174519 -6e-7,8.035443 z"
         transform="matrix(-1.1,0,0,-1.1,-1.1,0)"
         inkscape:connector-curvature="0" />
    </marker>
    <inkscape:path-effect
       effect="spiro"
       id="path-effect4408-8"
       is_visible="true" />
    <marker
       inkscape:stockid="Arrow2Lend"
       orient="auto"
       refY="0"
       refX="0"
       id="marker3134"
       style="overflow:visible">
      <path
         id="path3136"
         style="fill-rule:evenodd;stroke-width:0.625;stroke-linejoin:round"
         d="M 8.7185878,4.0337352 -2.2072895,0.01601326 8.7185884,-4.0017078 c -1.7454984,2.3720609 -1.7354408,5.6174519 -6e-7,8.035443 z"
         transform="matrix(-1.1,0,0,-1.1,-1.1,0)"
         inkscape:connector-curvature="0" />
    </marker>
    <inkscape:path-effect
       effect="spiro"
       id="path-effect4380-8"
       is_visible="true" />
    <inkscape:path-effect
       effect="spiro"
       id="path-effect4282-4-3-2"
       is_visible="true" />
    <inkscape:path-effect
       effect="spiro"
       id="path-effect4282-4-45"
       is_visible="true" />
    <marker
       inkscape:stockid="Arrow2Lend"
       orient="auto"
       refY="0"
       refX="0"
       id="marker3141"
       style="overflow:visible">
      <path
         id="path3143"
         style="fill-rule:evenodd;stroke-width:0.625;stroke-linejoin:round"
         d="M 8.7185878,4.0337352 -2.2072895,0.01601326 8.7185884,-4.0017078 c -1.7454984,2.3720609 -1.7354408,5.6174519 -6e-7,8.035443 z"
         transform="matrix(-1.1,0,0,-1.1,-1.1,0)"
         inkscape:connector-curvature="0" />
    </marker>
    <marker
       inkscape:stockid="Arrow2Lend"
       orient="auto"
       refY="0"
       refX="0"
       id="marker3145"
       style="overflow:visible">
      <path
         id="path3147"
         style="fill-rule:evenodd;stroke-width:0.625;stroke-linejoin:round"
         d="M 8.7185878,4.0337352 -2.2072895,0.01601326 8.7185884,-4.0017078 c -1.7454984,2.3720609 -1.7354408,5.6174519 -6e-7,8.035443 z"
         transform="matrix(-1.1,0,0,-1.1,-1.1,0)"
         inkscape:connector-curvature="0" />
    </marker>
    <marker
       inkscape:stockid="Arrow2Lend"
       orient="auto"
       refY="0"
       refX="0"
       id="marker3149"
       style="overflow:visible">
      <path
         id="path3151"
         style="fill-rule:evenodd;stroke-width:0.625;stroke-linejoin:round"
         d="M 8.7185878,4.0337352 -2.2072895,0.01601326 8.7185884,-4.0017078 c -1.7454984,2.3720609 -1.7354408,5.6174519 -6e-7,8.035443 z"
         transform="matrix(-1.1,0,0,-1.1,-1.1,0)"
         inkscape:connector-curvature="0" />
    </marker>
    <inkscape:path-effect
       effect="spiro"
       id="path-effect4282-4-3-8-1-5"
       is_visible="true" />
    <inkscape:path-effect
       effect="spiro"
       id="path-effect4282-4-4-7-1"
       is_visible="true" />
    <marker
       inkscape:stockid="Arrow2Lend"
       orient="auto"
       refY="0"
       refX="0"
       id="Arrow2Lend-7"
       style="overflow:visible">
      <path
         id="path3800-1"
         style="fill-rule:evenodd;stroke-width:0.625;stroke-linejoin:round"
         d="M 8.7185878,4.0337352 -2.2072895,0.01601326 8.7185884,-4.0017078 c -1.7454984,2.3720609 -1.7354408,5.6174519 -6e-7,8.035443 z"
         transform="matrix(-1.1,0,0,-1.1,-1.1,0)"
         inkscape:connector-curvature="0" />
    </marker>
    <inkscape:path-effect
       effect="spiro"
       id="path-effect4408-8-1"
       is_visible="true" />
    <marker
       inkscape:stockid="Arrow2Lend"
       orient="auto"
       refY="0"
       refX="0"
       id="marker3331"
       style="overflow:visible">
      <path
         id="path3333"
         style="fill-rule:evenodd;stroke-width:0.625;stroke-linejoin:round"
         d="M 8.7185878,4.0337352 -2.2072895,0.01601326 8.7185884,-4.0017078 c -1.7454984,2.3720609 -1.7354408,5.6174519 -6e-7,8.035443 z"
         transform="matrix(-1.1,0,0,-1.1,-1.1,0)"
         inkscape:connector-curvature="0" />
    </marker>
    <inkscape:path-effect
       effect="spiro"
       id="path-effect4380-8-5"
       is_visible="true" />
    <inkscape:path-effect
       effect="spiro"
       id="path-effect4282-4-3-2-2"
       is_visible="true" />
    <inkscape:path-effect
       effect="spiro"
       id="path-effect4282-4-45-7"
       is_visible="true" />
    <marker
       inkscape:stockid="Arrow2Lend"
       orient="auto"
       refY="0"
       refX="0"
       id="marker3338"
       style="overflow:visible">
      <path
         id="path3340"
         style="fill-rule:evenodd;stroke-width:0.625;stroke-linejoin:round"
         d="M 8.7185878,4.0337352 -2.2072895,0.01601326 8.7185884,-4.0017078 c -1.7454984,2.3720609 -1.7354408,5.6174519 -6e-7,8.035443 z"
         transform="matrix(-1.1,0,0,-1.1,-1.1,0)"
         inkscape:connector-curvature="0" />
    </marker>
    <marker
       inkscape:stockid="Arrow2Lend"
       orient="auto"
       refY="0"
       refX="0"
       id="marker3342"
       style="overflow:visible">
      <path
         id="path3344"
         style="fill-rule:evenodd;stroke-width:0.625;stroke-linejoin:round"
         d="M 8.7185878,4.0337352 -2.2072895,0.01601326 8.7185884,-4.0017078 c -1.7454984,2.3720609 -1.7354408,5.6174519 -6e-7,8.035443 z"
         transform="matrix(-1.1,0,0,-1.1,-1.1,0)"
         inkscape:connector-curvature="0" />
    </marker>
    <marker
       inkscape:stockid="Arrow2Lend"
       orient="auto"
       refY="0"
       refX="0"
       id="marker3346"
       style="overflow:visible">
      <path
         id="path3348"
         style="fill-rule:evenodd;stroke-width:0.625;stroke-linejoin:round"
         d="M 8.7185878,4.0337352 -2.2072895,0.01601326 8.7185884,-4.0017078 c -1.7454984,2.3720609 -1.7354408,5.6174519 -6e-7,8.035443 z"
         transform="matrix(-1.1,0,0,-1.1,-1.1,0)"
         inkscape:connector-curvature="0" />
    </marker>
  </defs>
  <sodipodi:namedview
     id="base"
     pagecolor="#ffffff"
     bordercolor="#666666"
     borderopacity="1.0"
     inkscape:pageopacity="0.0"
     inkscape:pageshadow="2"
     inkscape:zoom="1.979899"
     inkscape:cx="314.68101"
     inkscape:cy="30.710452"
     inkscape:document-units="px"
     inkscape:current-layer="layer1"
     showgrid="false"
     inkscape:window-width="1536"
     inkscape:window-height="803"
     inkscape:window-x="-8"
     inkscape:window-y="-8"
     inkscape:window-maximized="1"
     fit-margin-top="1"
     fit-margin-left="1"
     fit-margin-right="1"
     fit-margin-bottom="1" />
  <metadata
     id="metadata7">
    <rdf:RDF>
      <cc:Work
         rdf:about="">
        <dc:format>image/svg+xml</dc:format>
        <dc:type
           rdf:resource="http://purl.org/dc/dcmitype/StillImage" />
        <dc:title />
      </cc:Work>
    </rdf:RDF>
  </metadata>
  <g
     inkscape:label="Layer 1"
     inkscape:groupmode="layer"
     id="layer1"
     transform="translate(-4.6776518,-941.125)">
    <path
       sodipodi:type="star"
       style="opacity:0.5;fill:#ffffff;fill-opacity:1;fill-rule:nonzero;stroke:#ffffff;stroke-width:7.73400021;stroke-miterlimit:4;stroke-opacity:1;stroke-dasharray:none"
       id="path4264"
       sodipodi:sides="5"
       sodipodi:cx="250.51784"
       sodipodi:cy="431.11838"
       sodipodi:r1="123.88688"
       sodipodi:r2="100.22659"
       sodipodi:arg1="-2.1293956"
       sodipodi:arg2="-1.5010771"
       inkscape:flatsided="true"
       inkscape:rounded="0"
       inkscape:randomized="0"
       d="m 184.85793,326.06251 145.28395,10.14553 35.24623,141.30839 -123.50058,77.18786 -111.57379,-93.60367 z"
       inkscape:transform-center-x="2.6669095"
       inkscape:transform-center-y="9.2650226" />
    <path
       sodipodi:type="star"
       style="opacity:0.5;fill:#ffffff;fill-opacity:1;fill-rule:nonzero;stroke:#ffffff;stroke-width:7.73400021;stroke-miterlimit:4;stroke-opacity:1;stroke-dasharray:none"
       id="path4266"
       sodipodi:sides="5"
       sodipodi:cx="160.61424"
       sodipodi:cy="405.86456"
       sodipodi:r1="122.42865"
       sodipodi:r2="99.04686"
       sodipodi:arg1="0.47102755"
       sodipodi:arg2="1.0993461"
       inkscape:flatsided="true"
       inkscape:rounded="0"
       inkscape:randomized="0"
       d="M 269.71071,461.42295 141.48774,526.78996 39.696943,425.04218 105.00975,296.79159 247.16607,319.27614 z"
       inkscape:transform-center-x="5.9104148"
       inkscape:transform-center-y="5.9262097" />
    <flowRoot
       transform="translate(-45.209067,875.06338)"
       xml:space="preserve"
       id="flowRoot2985"
       style="font-size:12px;font-style:normal;font-weight:normal;line-height:125%;letter-spacing:0px;word-spacing:0px;fill:#000000;fill-opacity:1;stroke:none;font-family:Sans"><flowRegion
         id="flowRegion2987"><rect
           id="rect2989"
           width="84.852814"
           height="168.69548"
           x="50.507626"
           y="71.504059"
           style="font-size:12px" /></flowRegion><flowPara
         id="flowPara2991">gene A</flowPara><flowPara
         id="flowPara2993" /><flowPara
         id="flowPara3001" /><flowPara
         id="flowPara2995">gene B</flowPara><flowPara
         id="flowPara2997" /><flowPara
         id="flowPara3003" /><flowPara
         id="flowPara2999">gene C</flowPara></flowRoot>    <path
       style="fill:none;stroke:#000000;stroke-width:1px;stroke-linecap:butt;stroke-linejoin:miter;stroke-opacity:1;marker-end:url(#Arrow2Lend)"
       d="m 66.585075,952.62836 38.385795,0"
       id="path3005"
       inkscape:connector-curvature="0" />
    <path
       style="fill:none;stroke:#000000;stroke-width:1px;stroke-linecap:butt;stroke-linejoin:miter;stroke-opacity:1;marker-end:url(#Arrow2Lend)"
       d="m 66.585075,998.09397 38.385795,0"
       id="path3005-1"
       inkscape:connector-curvature="0" />
    <path
       style="fill:none;stroke:#000000;stroke-width:1px;stroke-linecap:butt;stroke-linejoin:miter;stroke-opacity:1;marker-end:url(#Arrow2Lend)"
       d="m 66.585075,1043.5597 38.385795,0"
       id="path3005-4"
       inkscape:connector-curvature="0" />
    <path
       style="fill:#78c0dc;fill-opacity:1;stroke:#000000;stroke-width:0.5;stroke-linecap:butt;stroke-linejoin:miter;stroke-miterlimit:4;stroke-opacity:1;stroke-dasharray:none"
       d="m 131.61683,942.37142 c 0,0 -0.78909,0.41026 -1.625,0.21875 l 0,13.71875 7.09375,8.0625 c 0,0 3.85019,2.47692 7.21875,2.4375 3.81523,-0.0446 8.5,-2.78125 8.5,-2.78125 l 6.875,-7.0625 0,-14.53125 c -3.62588,0.0166 -7.24928,0.0184 -10.875,0 l 0.0312,6.21875 c 0,0 -0.89958,3.84375 -4.4375,3.84375 -3.53793,0 -3.96875,-2.96875 -3.96875,-2.96875 l -0.21875,-7.09375 -8.59375,-0.0625 z"
       id="path4284"
       inkscape:connector-curvature="0" />
    <path
       style="fill:#b8dc46;fill-opacity:1;stroke:#000000;stroke-width:0.5;stroke-linecap:butt;stroke-linejoin:miter;stroke-miterlimit:4;stroke-opacity:1;stroke-dasharray:none"
       d="m 131.87274,992.49803 25.8346,0.0135 c 0.93152,0.0483 1.84354,0.41598 2.54816,1.02719 0.70462,0.61121 1.19742,1.46215 1.37686,2.3775 0.20581,1.04983 -0.007,2.17575 -0.5807,3.07847 -0.57411,0.90271 -1.50376,1.57241 -2.54181,1.83121 l -9.76085,-0.032 0.0316,6.2828 c -0.11707,1.0671 -0.64892,2.0833 -1.45903,2.7878 -0.8101,0.7044 -1.89032,1.09 -2.96337,1.0577 -0.88397,-0.027 -1.75748,-0.3329 -2.46448,-0.8641 -0.70701,-0.5313 -1.24422,-1.2851 -1.51568,-2.1268 l -0.22128,-7.0889 -8.59671,-0.05 c -0.834,-0.095 -1.63661,-0.4494 -2.26858,-1.00183 -0.63198,-0.55244 -1.09055,-1.30044 -1.29617,-2.11426 -0.30254,-1.19742 -0.0366,-2.52564 0.70355,-3.51431 0.74019,-0.98867 1.93976,-1.61788 3.17392,-1.66481 l -3e-5,8.4e-4"
       id="path4280-6"
       inkscape:path-effect="#path-effect4282-4-45-7"
       inkscape:original-d="m 131.87274,992.49803 25.8346,0.0135 c 0,0 3.8982,-0.59184 3.92502,3.40469 0.026,3.86904 -3.12251,4.90968 -3.12251,4.90968 l -9.76085,-0.032 0.0316,6.2828 c 0,0 -0.88448,3.8455 -4.4224,3.8455 -3.53793,0 -3.98016,-2.9909 -3.98016,-2.9909 l -0.22128,-7.0889 -8.59671,-0.05 c 0,0 -3.12251,1.5839 -3.56475,-3.11609 -0.44224,-4.70001 3.87747,-5.17912 3.87747,-5.17912 z"
       inkscape:connector-curvature="0"
       sodipodi:nodetypes="ccscccscccsc" />
    <path
       style="fill:#dc5546;fill-opacity:1;stroke:#000000;stroke-width:0.5;stroke-linecap:butt;stroke-linejoin:miter;stroke-miterlimit:4;stroke-opacity:1;stroke-dasharray:none"
       d="m 134.37274,1040.8909 25.8346,0.013 c 0.93152,0.048 1.84354,0.416 2.54816,1.0272 0.70462,0.6112 1.19742,1.4621 1.37686,2.3775 0.20581,1.0498 -0.007,2.1758 -0.58069,3.0785 -0.57412,0.9027 -1.50376,1.5724 -2.54182,1.8312 l -9.76085,-0.032 0.0316,6.2829 c -0.1171,1.0671 -0.64896,2.0833 -1.45906,2.7877 -0.8101,0.7044 -1.8903,1.09 -2.96334,1.0577 -0.88397,-0.027 -1.75748,-0.3329 -2.46448,-0.8641 -0.70701,-0.5313 -1.24422,-1.2851 -1.51568,-2.1268 l -0.22128,-7.0889 -8.59671,-0.05 c -1.51607,-0.01 -3.0674,-0.059 -4.47814,-0.6138 -0.70537,-0.2776 -1.3668,-0.6746 -1.92147,-1.1913 -0.55468,-0.5167 -1.00072,-1.1534 -1.27337,-1.8607 -0.39592,-1.0271 -0.41296,-2.1955 -0.0471,-3.2337 0.3658,-1.0382 1.11147,-1.9379 2.0638,-2.4899 0.95233,-0.5521 2.10358,-0.7521 3.18631,-0.5537 1.08274,0.1985 2.08817,0.7939 2.78274,1.6479 l -3e-5,0"
       id="path4280-6-9"
       inkscape:path-effect="#path-effect4282-4-3-2-2"
       inkscape:original-d="m 134.37274,1040.8909 25.8346,0.013 c 0,0 3.8982,-0.5918 3.92502,3.4047 0.026,3.8691 -3.12251,4.9097 -3.12251,4.9097 l -9.76085,-0.032 0.0316,6.2829 c 0,0 -0.88448,3.8454 -4.4224,3.8454 -3.53793,0 -3.98016,-2.9909 -3.98016,-2.9909 l -0.22128,-7.0889 -8.59671,-0.05 c 0,0 -7.63252,0.4092 -7.67298,-3.6658 -0.0469,-4.7205 7.9857,-4.6294 7.9857,-4.6294 z"
       inkscape:connector-curvature="0"
       sodipodi:nodetypes="ccscccscccscc" />
    <flowRoot
       transform="translate(124.42361,874.09055)"
       xml:space="preserve"
       id="flowRoot2985-5"
       style="font-size:12px;font-style:normal;font-weight:normal;line-height:125%;letter-spacing:0px;word-spacing:0px;fill:#000000;fill-opacity:1;stroke:none;font-family:Sans"><flowRegion
         id="flowRegion2987-5"><rect
           id="rect2989-9"
           width="84.852814"
           height="168.69548"
           x="50.507626"
           y="71.504059"
           style="font-size:12px" /></flowRegion><flowPara
         id="flowPara2991-0">A</flowPara><flowPara
         id="flowPara2993-0" /><flowPara
         id="flowPara3001-3" /><flowPara
         id="flowPara2995-2">B</flowPara><flowPara
         id="flowPara2997-3" /><flowPara
         id="flowPara3003-5" /><flowPara
         id="flowPara2999-1">C</flowPara></flowRoot>    <path
       style="fill:none;stroke:#000000;stroke-width:1px;stroke-linecap:butt;stroke-linejoin:miter;stroke-opacity:1"
       d="m 198.36237,952.06842 31.42857,22.5 -31.07143,25.35714"
       id="path4378"
       inkscape:path-effect="#path-effect4380-8-5"
       inkscape:original-d="m 198.36237,952.06842 31.42857,22.5 -31.07143,25.35714"
       inkscape:connector-curvature="0"
       sodipodi:nodetypes="ccc" />
    <path
       style="fill:none;stroke:#000000;stroke-width:1px;stroke-linecap:butt;stroke-linejoin:miter;stroke-opacity:1;marker-end:url(#Arrow2Lend)"
       d="m 230.18403,974.58604 38.38579,0"
       id="path3005-2"
       inkscape:connector-curvature="0" />
    <path
       style="fill:none;stroke:#000000;stroke-width:1px;stroke-linecap:butt;stroke-linejoin:miter;stroke-opacity:1"
       d="m 199.07665,952.06842 28.92858,64.28568 -26.78572,29.6429"
       id="path4406"
       inkscape:path-effect="#path-effect4408-8-1"
       inkscape:original-d="m 199.07665,952.06842 28.92858,64.28568 -26.78572,29.6429"
       inkscape:connector-curvature="0" />
    <path
       style="fill:none;stroke:#000000;stroke-width:1px;stroke-linecap:butt;stroke-linejoin:miter;stroke-opacity:1;marker-end:url(#Arrow2Lend)"
       d="m 228.39832,1016.3718 38.38579,0"
       id="path3005-2-0"
       inkscape:connector-curvature="0" />
    <path
       style="fill:#78c0dc;fill-opacity:1;stroke:#000000;stroke-width:0.5;stroke-linecap:butt;stroke-linejoin:miter;stroke-miterlimit:4;stroke-opacity:1;stroke-dasharray:none"
       d="m 286.92934,965.56373 c 0,0 -0.78909,0.41026 -1.625,0.21875 l 0,13.71875 7.09375,8.0625 c 0,0 3.85019,2.47691 7.21875,2.4375 3.81523,-0.0446 8.5,-2.78125 8.5,-2.78125 l 6.875,-7.0625 0,-14.53125 c -3.62588,0.0166 -7.24928,0.0184 -10.875,0 l 0.0312,6.21875 c 0,0 -0.89958,3.84375 -4.4375,3.84375 -3.53793,0 -3.96875,-2.96875 -3.96875,-2.96875 l -0.21875,-7.09375 -8.59375,-0.0625 z"
       id="path4284-2"
       inkscape:connector-curvature="0" />
    <path
       style="fill:#78c0dc;fill-opacity:1;stroke:#000000;stroke-width:0.5;stroke-linecap:butt;stroke-linejoin:miter;stroke-miterlimit:4;stroke-opacity:1;stroke-dasharray:none"
       d="m 289.78647,1027.7066 c 0,0 -0.78909,0.4103 -1.625,0.2187 l 0,13.7188 7.09375,8.0625 c 0,0 3.85019,2.4769 7.21875,2.4375 3.81523,-0.045 8.5,-2.7813 8.5,-2.7813 l 6.875,-7.0625 0,-14.5312 c -3.62588,0.017 -7.24928,0.018 -10.875,0 l 0.0312,6.2187 c 0,0 -0.89958,3.8438 -4.4375,3.8438 -3.53793,0 -3.96875,-2.9688 -3.96875,-2.9688 l -0.21875,-7.0937 -8.59375,-0.062 z"
       id="path4284-25"
       inkscape:connector-curvature="0" />
    <path
       style="fill:#b8dc46;fill-opacity:1;stroke:#000000;stroke-width:0.5;stroke-linecap:butt;stroke-linejoin:miter;stroke-miterlimit:4;stroke-opacity:1;stroke-dasharray:none"
       d="m 287.22988,956.92666 25.8346,0.0135 c 0.93152,0.0483 1.84354,0.41598 2.54816,1.02719 0.70462,0.61121 1.19742,1.46215 1.37686,2.3775 0.2058,1.04983 -0.007,2.17575 -0.5807,3.07846 -0.57412,0.90272 -1.50376,1.57246 -2.54181,1.83121 l -9.76085,-0.0316 0.0316,6.28284 c -0.11708,1.06713 -0.64894,2.08332 -1.45904,2.78774 -0.8101,0.70441 -1.89031,1.08998 -2.96336,1.05772 -0.88398,-0.0266 -1.75748,-0.33286 -2.46448,-0.86414 -0.70701,-0.53128 -1.24422,-1.28509 -1.51568,-2.12677 l -0.22128,-7.08891 -8.59671,-0.0496 c -0.834,-0.095 -1.6366,-0.44939 -2.26858,-1.00182 -0.63197,-0.55243 -1.09055,-1.30043 -1.29617,-2.11424 -0.30255,-1.19742 -0.0367,-2.52564 0.70354,-3.51431 0.7402,-0.98868 1.93977,-1.61788 3.17393,-1.66481 l -3e-5,4e-5"
       id="path4280-6-1"
       inkscape:path-effect="#path-effect4282-4-4-7-1"
       inkscape:original-d="m 287.22988,956.92666 25.8346,0.0135 c 0,0 3.8982,-0.59184 3.92502,3.40469 0.026,3.86904 -3.12251,4.90967 -3.12251,4.90967 l -9.76085,-0.0316 0.0316,6.28284 c 0,0 -0.88448,3.84546 -4.4224,3.84546 -3.53793,0 -3.98016,-2.99091 -3.98016,-2.99091 l -0.22128,-7.08891 -8.59671,-0.0496 c 0,0 -3.12251,1.58395 -3.56475,-3.11606 -0.44224,-4.70001 3.87747,-5.17912 3.87747,-5.17912 z"
       inkscape:connector-curvature="0"
       sodipodi:nodetypes="ccscccscccsc" />
    <path
       style="fill:#dc5546;fill-opacity:1;stroke:#000000;stroke-width:0.5;stroke-linecap:butt;stroke-linejoin:miter;stroke-miterlimit:4;stroke-opacity:1;stroke-dasharray:none"
       d="m 290.09182,1019.4308 25.8346,0.014 c 0.93152,0.048 1.84354,0.416 2.54816,1.0272 0.70462,0.6112 1.19742,1.4621 1.37686,2.3775 0.20581,1.0498 -0.007,2.1758 -0.58069,3.0785 -0.57412,0.9027 -1.50376,1.5724 -2.54182,1.8312 l -9.76085,-0.032 0.0316,6.2828 c -0.11707,1.0671 -0.64892,2.0833 -1.45903,2.7878 -0.8101,0.7044 -1.89032,1.09 -2.96337,1.0577 -0.88397,-0.027 -1.75748,-0.3329 -2.46448,-0.8641 -0.70701,-0.5313 -1.24422,-1.2851 -1.51568,-2.1268 l -0.22128,-7.089 -8.59671,-0.05 c -1.51606,-0.01 -3.06738,-0.059 -4.47811,-0.6138 -0.70536,-0.2776 -1.3668,-0.6745 -1.92147,-1.1912 -0.55468,-0.5167 -1.00074,-1.1534 -1.2734,-1.8607 -0.39595,-1.0271 -0.413,-2.1955 -0.0472,-3.2337 0.3658,-1.0383 1.11148,-1.9379 2.06382,-2.49 0.95234,-0.5521 2.1036,-0.7521 3.18635,-0.5536 1.08274,0.1985 2.08818,0.7939 2.78274,1.6479 l -3e-5,3e-4"
       id="path4280-6-9-9"
       inkscape:path-effect="#path-effect4282-4-3-8-1-5"
       inkscape:original-d="m 290.09182,1019.4308 25.8346,0.014 c 0,0 3.8982,-0.5918 3.92502,3.4047 0.026,3.869 -3.12251,4.9097 -3.12251,4.9097 l -9.76085,-0.032 0.0316,6.2828 c 0,0 -0.88448,3.8455 -4.4224,3.8455 -3.53793,0 -3.98016,-2.9909 -3.98016,-2.9909 l -0.22128,-7.089 -8.59671,-0.05 c 0,0 -7.63252,0.4093 -7.67298,-3.6657 -0.0469,-4.7206 7.9857,-4.6294 7.9857,-4.6294 z"
       inkscape:connector-curvature="0"
       sodipodi:nodetypes="ccscccscccscc" />
    <flowRoot
       transform="translate(276.11795,890.03935)"
       xml:space="preserve"
       id="flowRoot2985-5-0"
       style="font-size:12px;font-style:normal;font-weight:normal;line-height:125%;letter-spacing:0px;word-spacing:0px;fill:#000000;fill-opacity:1;stroke:none;font-family:Sans"><flowRegion
         id="flowRegion2987-5-2"><rect
           id="rect2989-9-5"
           width="84.852814"
           height="168.69548"
           x="50.507626"
           y="71.504059"
           style="font-size:12px" /></flowRegion><flowPara
         id="flowPara2991-0-6">AB</flowPara><flowPara
         id="flowPara2993-0-5" /><flowPara
         id="flowPara3001-3-6" /><flowPara
         id="flowPara2995-2-2" /><flowPara
         id="flowPara4550">AC</flowPara></flowRoot>  </g>
</svg>
